<?xml version="1.0" encoding="UTF-8"?>
<svg id="Layer_2" data-name="Layer 2" xmlns="http://www.w3.org/2000/svg" viewBox="0 0 1298.05 961.55">
  <defs>
  </defs>
  <g id="Layer_1-2" data-name="Layer 1">
    <g>
      <g>
        <polygon class="cls-1" points="960.6 367.88 1009.62 414.85 1009.62 638.68 960.6 638.68 960.6 367.88"/>
        <polygon class="cls-1" points="891.23 309.41 940.25 351.13 940.25 638.68 891.23 638.68 891.23 309.41"/>
        <polygon class="cls-1" points="822.79 497.41 871.81 543.6 871.81 638.68 822.79 638.68 822.79 497.41"/>
        <polygon class="cls-1" points="822.79 435.06 871.81 479.51 871.81 523.97 822.79 483.56 822.79 435.06"/>
        <polygon class="cls-1" points="822.79 370.97 871.81 415.42 871.81 459.88 822.79 419.47 822.79 370.97"/>
        <polygon class="cls-1" points="754.34 268.19 803.36 313.26 803.36 638.68 754.34 638.68 754.34 268.19"/>
        <polygon class="cls-1" points="803.82 223.74 779.31 246.27 754.8 223.74 754.8 255.49 762.23 261.97 779.31 276.86 803.82 298.22 803.82 268.8 796.39 261.97 803.82 255.49 803.82 223.74"/>
        <polygon class="cls-1" points="686.82 535.43 673.87 535.43 624.85 535.43 624.85 584.45 624.85 593.26 673.87 638.68 673.87 584.45 686.82 584.45 686.82 638.68 735.84 638.68 735.84 584.45 735.84 535.43 686.82 535.43"/>
        <polygon class="cls-1" points="556.41 435.06 605.43 479.51 605.43 575.36 556.41 529.75 556.41 435.06"/>
        <polygon class="cls-1" points="556.41 545.34 605.43 589.79 605.43 638.68 556.41 593.07 556.41 545.34"/>
        <polygon class="cls-1" points="488.43 432.84 537.45 477.3 537.45 526.19 488.43 480.57 488.43 432.84"/>
        <polygon class="cls-1" points="281.7 432.84 330.73 477.3 330.73 526.19 281.7 480.57 281.7 432.84"/>
        <polygon class="cls-1" points="281.7 367.88 330.73 412.34 330.73 461.23 281.7 415.61 281.7 367.88"/>
        <polygon class="cls-1" points="556.41 610 605.43 654.46 605.43 703.35 556.41 657.74 556.41 610"/>
        <polygon class="cls-1" points="487.04 497.41 536.06 545.34 536.06 638.68 487.04 638.68 487.04 497.41"/>
        <polygon class="cls-1" points="420.44 0 469.46 45.21 469.46 638.68 420.44 638.68 420.44 0"/>
        <polygon class="cls-1" points="351.15 497.41 400.17 545.34 400.17 638.68 351.15 638.68 351.15 497.41"/>
        <polygon class="cls-1" points="281.7 497.41 330.73 539.28 330.73 638.68 281.7 638.68 281.7 497.41"/>
      </g>
      <g>
        <g>
          <polygon class="cls-1" points="1279.65 796.83 1279.65 852.06 1285.76 852.06 1285.76 801.03 1279.65 796.83"/>
          <path class="cls-1" d="m1264.37,790.25l-6.11-3.92v58.98h-24.03v-21.73h-29.94v6.74h.46v14.99h-20.78v-21.73h-29.94v28.47h0s23.83,0,23.83,0v11.4h-16.64l-4.62,6.74h27.38v-18.14h80.4v-6.74h0v-55.07Zm-104.23,55.07v-14.99h17.72v14.99h-17.72Zm50.72-14.99h17.26v14.99h-17.26v-14.99Z"/>
          <path class="cls-1" d="m1130.65,845.32h-15.89v-12.82l-6.11-4.33v17.15h-12.83v-12.82l-6.11-4.33v17.15h-23.98v-12.82l-6.11-4.33v17.15h-15.74v-12.82l-6.11-4.33v17.15h-12.53v-12.82l-6.11-4.33v17.15h-22.46v-23.26l-6.11-6.22v8.06h-23.07v28.16h169.27v-19.55l-6.11-4.33v17.15Zm-157.05,0v-14.68h16.96v14.68h-16.96Z"/>
          <polygon class="cls-1" points="939.84 852.06 945.95 852.06 945.95 801.35 939.84 797.52 939.84 852.06"/>
          <polygon class="cls-1" points="916.89 845.32 883.78 845.32 883.78 829.84 898.06 829.84 901.75 823.9 883.78 823.9 877.66 823.9 877.66 829.84 877.66 845.32 851.69 845.32 851.69 792.37 845.58 787.84 845.58 845.32 845.58 852.06 851.69 852.06 877.66 852.06 883.78 852.06 916.89 852.06 923.19 852.06 923.19 845.32 923.19 791.72 916.89 787.23 916.89 845.32"/>
          <polygon class="cls-1" points="712.06 845.32 690.68 845.32 690.68 790.92 684.57 786.51 684.57 845.32 661.71 845.32 661.71 822.42 655.6 818.01 655.6 845.32 622.85 845.32 622.85 797.81 616.74 793.4 616.74 845.32 616.74 852.06 622.85 852.06 655.6 852.06 661.71 852.06 684.57 852.06 690.68 852.06 712.06 852.06 718.17 852.06 718.17 845.32 718.17 801.03 712.06 796.99 712.06 845.32"/>
          <polygon class="cls-1" points="450.84 845.32 396.89 845.32 396.89 823 390.07 817.86 390.07 845.32 390.07 852.06 396.89 852.06 450.84 852.06 457.66 852.06 457.66 845.32 457.66 823 450.84 817.86 450.84 845.32"/>
          <polygon class="cls-1" points="359.06 852.06 365.17 852.06 365.17 801.03 359.06 796.87 359.06 852.06"/>
          <polygon class="cls-1" points="336.19 845.32 317.49 845.32 317.49 801.32 311.47 796.96 311.47 845.32 297.5 845.32 297.5 852.06 311.47 852.06 317.49 852.06 336.19 852.06 342.28 852.06 342.3 852.06 342.3 791.59 336.19 787.09 336.19 845.32"/>
          <path class="cls-1" d="m803.42,823.9h-6.11v21.42h-25.21v-23.7l-6.11-5.46v7.74h-22.76v28.16h83.26v-28.16h-23.07Zm-54.08,21.42v-14.68h16.65v14.68h-16.65Zm71.04,0h-16.96v-14.68h16.96v14.68Z"/>
          <path class="cls-1" d="m577.93,823.94h-6.11v21.38h-22.92v-23.02l-6.11-3.85v26.87h-26.69v-23.02l-6.11-3.85v26.87h-30.44v-53.65l-6.11-3.95v57.6h-.42v6.74h127.67v-28.12h-22.76Zm16.65,21.38h-16.65v-14.64h16.65v14.64Z"/>
          <path class="cls-1" d="m244.07,823.77l4.47,6.11h28.18v15.44h-51.42v-22.9l-6.7-4.64v27.54h-28.04v-21.55h-29.03v21.55h-20.62v-43.91l-6.51-4.35v55h148.43v-28.29h-38.76Zm-76.43,21.55v-15.44h16.8v15.44h-16.8Z"/>
          <path class="cls-1" d="m90.51,830.46h22.07l4.34-6.7h-26.41v-.02h-6.74v21.57h-22.56v-22.98l-6.7-4.47v27.46h-24.69v-23.2l-6.66-6.03v7.66H0v28.31h119.78v-6.74h-29.27v-14.85Zm-83.77,14.85v-14.83h16.42v14.83H6.74Z"/>
          <polygon class="cls-1" points="1178.97 805.88 1176.53 803.57 1178.97 801.43 1178.97 796.9 1173.45 801.35 1167.8 796.13 1167.8 801.3 1178.97 810.93 1178.97 805.88"/>
          <polygon class="cls-1" points="628.43 780.74 625.99 778.43 628.43 776.29 628.43 771.76 622.91 776.21 617.26 770.99 617.26 776.16 628.43 785.79 628.43 780.74"/>
          <polygon class="cls-1" points="1001.76 801.03 993.86 793.51 989.04 799.51 997.16 806.52 1001.76 801.03"/>
          <polygon class="cls-1" points="985.02 802.46 977.12 794.95 972.3 800.95 980.42 807.95 985.02 802.46"/>
          <polygon class="cls-1" points="775.75 801.74 767.84 794.23 763.02 800.23 771.15 807.24 775.75 801.74"/>
          <polygon class="cls-1" points="759.01 803.18 751.1 795.67 746.28 801.67 754.41 808.67 759.01 803.18"/>
          <polygon class="cls-1" points="674.83 801.03 666.92 793.51 662.1 799.51 670.23 806.52 674.83 801.03"/>
          <polygon class="cls-1" points="658.09 802.46 650.18 794.95 645.36 800.95 653.49 807.95 658.09 802.46"/>
          <polygon class="cls-1" points="550.91 864.93 559.04 871.93 563.64 866.44 555.73 858.93 550.91 864.93"/>
          <polygon class="cls-1" points="534.18 866.36 542.3 873.37 546.9 867.88 539 860.37 534.18 866.36"/>
          <polygon class="cls-1" points="525.66 803.18 517.76 795.67 512.94 801.67 521.06 808.67 525.66 803.18"/>
          <polygon class="cls-1" points="438.6 808.96 430.69 801.45 425.87 807.45 434 814.46 438.6 808.96"/>
          <polygon class="cls-1" points="421.86 810.4 413.95 802.89 409.13 808.88 417.26 815.89 421.86 810.4"/>
          <polygon class="cls-1" points="229.44 800.31 221.54 792.8 216.72 798.79 224.84 805.8 229.44 800.31"/>
          <polygon class="cls-1" points="260.47 865.65 268.6 872.65 273.2 867.16 265.29 859.65 260.47 865.65"/>
          <polygon class="cls-1" points="212.7 801.74 204.8 794.23 199.98 800.23 208.11 807.24 212.7 801.74"/>
          <polygon class="cls-1" points="32.83 801.03 24.93 793.51 20.11 799.51 28.24 806.52 32.83 801.03"/>
          <polygon class="cls-1" points="16.09 802.46 8.19 794.95 3.37 800.95 11.5 807.95 16.09 802.46"/>
          <polygon class="cls-1" points="52.68 864.21 60.81 871.22 65.41 865.72 57.5 858.21 52.68 864.21"/>
          <polygon class="cls-1" points="35.94 865.65 44.07 872.65 48.67 867.16 40.76 859.65 35.94 865.65"/>
        </g>
        <g>
          <path class="cls-1" d="m17.55,903.33H1.01v-4.75h38.82v4.75h-16.38v42.92h-5.9v-42.92Z"/>
          <path class="cls-1" d="m46.43,896.79h5.82v16.95c2.28-.92,4.39-1.58,6.33-2,1.94-.41,3.92-.62,5.94-.62,3.36,0,5.96.54,7.8,1.62,1.84,1.08,3.13,2.84,3.88,5.27.75,2.44,1.13,5.79,1.13,10.06v18.19h-5.82v-18.05c0-3.4-.22-5.96-.66-7.68-.44-1.72-1.27-2.95-2.48-3.69-1.22-.73-3.02-1.1-5.4-1.1-2.95,0-6.03.53-9.24,1.58l-1.48.48v28.45h-5.82v-49.46Z"/>
          <path class="cls-1" d="m90.09,942.84c-2.46-2.73-3.69-7.04-3.69-12.92,0-6.38,1.32-11.11,3.96-14.19,2.64-3.08,6.78-4.62,12.42-4.62,5.18,0,9.04,1.32,11.61,3.96,2.56,2.64,3.84,6.69,3.84,12.16l-.31,3.93h-25.62c0,2.85.35,5.08,1.05,6.68.7,1.61,1.89,2.77,3.57,3.48,1.68.71,4.02,1.07,7.03,1.07,1.5,0,3.23-.03,5.2-.1,1.97-.07,3.75-.17,5.36-.31l2.25-.21.16,4.06c-5.75.73-10.51,1.1-14.28,1.1-5.9,0-10.08-1.37-12.54-4.1Zm22.32-15.81c0-4.18-.75-7.15-2.25-8.92-1.5-1.77-3.96-2.65-7.38-2.65s-6.21.93-7.92,2.79c-1.71,1.86-2.59,4.79-2.64,8.78h20.18Z"/>
          <path class="cls-1" d="m145.41,898.58h19.64c5.85,0,10.17,1.25,12.97,3.75,2.79,2.5,4.19,6.37,4.19,11.61,0,10.84-5.72,16.26-17.16,16.26h-13.66v16.05h-5.98v-47.67Zm19.56,26.94c7.4,0,11.1-3.86,11.1-11.57,0-3.72-.88-6.43-2.64-8.13-1.76-1.7-4.58-2.55-8.46-2.55h-13.59v22.25h13.59Z"/>
          <path class="cls-1" d="m194.9,945.32c-1.79-1.08-3.04-2.84-3.77-5.27-.73-2.43-1.09-5.86-1.09-10.27v-17.98h5.82v17.91c0,3.44.21,6.04.62,7.78.41,1.75,1.16,2.99,2.25,3.72,1.09.74,2.77,1.1,5.05,1.1,3.52,0,7.14-.85,10.87-2.55v-27.97h5.82v34.44h-5.82v-2.41c-2.12,1.1-4.09,1.89-5.9,2.38-1.81.48-3.88.72-6.21.72-3.31,0-5.86-.54-7.65-1.62Z"/>
          <path class="cls-1" d="m233.83,946.39l-2.17-.21v-49.39h5.75v16.74c4.04-1.61,7.97-2.41,11.8-2.41,3.42,0,6.11.59,8.07,1.76,1.97,1.17,3.4,3.04,4.31,5.61.9,2.57,1.36,6.02,1.36,10.33,0,4.73-.57,8.38-1.71,10.95-1.14,2.57-3.04,4.4-5.71,5.48-2.67,1.08-6.43,1.62-11.3,1.62-3.42,0-6.88-.16-10.4-.48Zm18.55-5.41c1.76-.9,2.98-2.31,3.65-4.24.67-1.93,1.01-4.62,1.01-8.06,0-3.26-.29-5.82-.85-7.68-.57-1.86-1.51-3.2-2.83-4.03-1.32-.83-3.14-1.24-5.47-1.24-2.85,0-6.34.67-10.48,2v24.25c3.73.23,6.21.34,7.45.34,3.26,0,5.77-.45,7.53-1.34Z"/>
          <path class="cls-1" d="m272.96,896.79h5.82v49.46h-5.82v-49.46Z"/>
          <path class="cls-1" d="m290.43,898.03h5.75v5.99h-5.75v-5.99Zm0,13.78h5.75v34.44h-5.75v-34.44Z"/>
          <path class="cls-1" d="m311.62,945.12c-2.28-1.22-3.91-3.12-4.89-5.72-.98-2.59-1.48-6.05-1.48-10.37,0-5.46,1.03-9.83,3.11-13.09,2.07-3.26,6.08-4.89,12.03-4.89,1.55,0,3.16.07,4.81.21,1.66.14,3.91.44,6.75.9l-.23,4.2c-4.09-.41-7.22-.62-9.39-.62-2.95,0-5.21.4-6.79,1.21-1.58.8-2.69,2.16-3.34,4.06-.65,1.91-.97,4.63-.97,8.16,0,3.35.31,5.96.93,7.82.62,1.86,1.75,3.22,3.38,4.06,1.63.85,4,1.27,7.1,1.27l9.16-.62.23,4.27c-4.97.64-8.7.96-11.18.96-3.88,0-6.96-.61-9.24-1.83Z"/>
          <path class="cls-1" d="m358.83,898.58h5.98v47.67h-5.98v-47.67Z"/>
          <path class="cls-1" d="m376.91,911.81h5.75v2.41c2.33-1.15,4.46-1.95,6.41-2.41,1.94-.46,3.97-.69,6.09-.69,3.31,0,5.87.55,7.69,1.65,1.81,1.1,3.09,2.86,3.84,5.27.75,2.41,1.13,5.75,1.13,10.02v18.19h-5.75v-18.05c0-3.26-.22-5.76-.66-7.51-.44-1.74-1.23-3.01-2.37-3.79-1.14-.78-2.79-1.17-4.97-1.17-1.76,0-3.56.2-5.4.59-1.84.39-3.33.84-4.46,1.34l-1.48.62v27.97h-5.82v-34.44Z"/>
          <path class="cls-1" d="m419.38,945.98l-2.33-.34.31-4.48c6.06.78,10.51,1.17,13.35,1.17,3.11,0,5.42-.45,6.95-1.34,1.53-.9,2.29-2.33,2.29-4.31,0-1.42-.38-2.5-1.13-3.24-.75-.73-1.71-1.26-2.87-1.58-1.16-.32-2.81-.62-4.93-.89l-1.94-.28c-3.11-.46-5.54-1.01-7.3-1.65-1.76-.64-3.08-1.55-3.96-2.72-.88-1.17-1.32-2.79-1.32-4.86,0-3.72,1.27-6.36,3.8-7.92,2.53-1.56,6.13-2.34,10.79-2.34,3.67,0,7.43.3,11.26.9l2.17.34-.16,4.41c-5.59-.73-9.96-1.1-13.12-1.1s-5.24.41-6.72,1.24c-1.48.83-2.21,2.11-2.21,3.86,0,1.24.36,2.19,1.09,2.86.72.67,1.67,1.15,2.83,1.45,1.16.3,2.81.61,4.93.93l1.94.34c3.21.51,5.69,1.09,7.45,1.76,1.76.67,3.07,1.62,3.92,2.86.85,1.24,1.28,2.96,1.28,5.17,0,3.72-1.23,6.44-3.69,8.16-2.46,1.72-6.22,2.58-11.3,2.58-3.11,0-6.91-.32-11.41-.96Z"/>
          <path class="cls-1" d="m460.88,945.87c-1.48-.76-2.54-2.04-3.18-3.86-.65-1.81-.97-4.35-.97-7.61v-18.12h-5.51v-4.48h5.51v-10.54h5.75v10.54h12.34v4.48h-12.34v16.46c0,2.57.1,4.49.31,5.75.21,1.26.71,2.23,1.51,2.89.8.67,2.06,1,3.77,1l6.91-.41.39,4.27c-3.67.5-6.44.76-8.31.76-2.64,0-4.7-.38-6.17-1.14Z"/>
          <path class="cls-1" d="m481.95,898.03h5.75v5.99h-5.75v-5.99Zm0,13.78h5.75v34.44h-5.75v-34.44Z"/>
          <path class="cls-1" d="m503.89,945.87c-1.48-.76-2.54-2.04-3.18-3.86-.65-1.81-.97-4.35-.97-7.61v-18.12h-5.51v-4.48h5.51v-10.54h5.75v10.54h12.34v4.48h-12.34v16.46c0,2.57.1,4.49.31,5.75.21,1.26.71,2.23,1.51,2.89.8.67,2.06,1,3.77,1l6.91-.41.39,4.27c-3.67.5-6.44.76-8.31.76-2.64,0-4.7-.38-6.17-1.14Z"/>
          <path class="cls-1" d="m529.43,945.32c-1.79-1.08-3.04-2.84-3.77-5.27-.73-2.43-1.09-5.86-1.09-10.27v-17.98h5.82v17.91c0,3.44.21,6.04.62,7.78.41,1.75,1.16,2.99,2.25,3.72,1.09.74,2.77,1.1,5.05,1.1,3.52,0,7.14-.85,10.87-2.55v-27.97h5.82v34.44h-5.82v-2.41c-2.12,1.1-4.09,1.89-5.9,2.38-1.81.48-3.88.72-6.21.72-3.31,0-5.86-.54-7.65-1.62Z"/>
          <path class="cls-1" d="m572.36,945.87c-1.48-.76-2.54-2.04-3.18-3.86-.65-1.81-.97-4.35-.97-7.61v-18.12h-5.51v-4.48h5.51v-10.54h5.75v10.54h12.34v4.48h-12.34v16.46c0,2.57.1,4.49.31,5.75.21,1.26.71,2.23,1.51,2.89.8.67,2.06,1,3.77,1l6.91-.41.39,4.27c-3.67.5-6.44.76-8.31.76-2.64,0-4.7-.38-6.17-1.14Z"/>
          <path class="cls-1" d="m593.44,898.03h5.75v5.99h-5.75v-5.99Zm0,13.78h5.75v34.44h-5.75v-34.44Z"/>
          <path class="cls-1" d="m614.94,945.12c-2.43-1.22-4.17-3.11-5.2-5.68-1.04-2.57-1.55-5.97-1.55-10.2s.54-7.86,1.63-10.51c1.09-2.64,2.85-4.57,5.28-5.79,2.43-1.22,5.67-1.83,9.7-1.83s7.34.62,9.74,1.86c2.41,1.24,4.15,3.17,5.24,5.79,1.09,2.62,1.63,6.11,1.63,10.47s-.52,7.62-1.55,10.2c-1.04,2.57-2.76,4.47-5.16,5.68-2.41,1.22-5.71,1.83-9.9,1.83s-7.43-.61-9.86-1.83Zm16.46-3.93c1.5-.85,2.55-2.2,3.14-4.06.59-1.86.89-4.49.89-7.89,0-3.58-.31-6.34-.93-8.27-.62-1.93-1.68-3.31-3.18-4.13-1.5-.83-3.65-1.24-6.44-1.24s-4.96.41-6.48,1.24c-1.53.83-2.61,2.2-3.26,4.13-.65,1.93-.97,4.68-.97,8.27,0,3.35.3,5.97.89,7.85.59,1.88,1.66,3.25,3.18,4.1,1.53.85,3.74,1.27,6.64,1.27s5.02-.42,6.52-1.27Z"/>
          <path class="cls-1" d="m650.89,911.81h5.75v2.41c2.33-1.15,4.46-1.95,6.41-2.41,1.94-.46,3.97-.69,6.09-.69,3.31,0,5.87.55,7.69,1.65,1.81,1.1,3.09,2.86,3.84,5.27.75,2.41,1.13,5.75,1.13,10.02v18.19h-5.75v-18.05c0-3.26-.22-5.76-.66-7.51-.44-1.74-1.23-3.01-2.37-3.79-1.14-.78-2.79-1.17-4.97-1.17-1.76,0-3.56.2-5.4.59-1.84.39-3.33.84-4.46,1.34l-1.48.62v27.97h-5.82v-34.44Z"/>
          <path class="cls-1" d="m716.64,903.27v18.6h22.13v4.68h-22.13v19.7h-5.98v-47.67h32.14v4.68h-26.16Z"/>
          <path class="cls-1" d="m754.14,945.12c-2.43-1.22-4.17-3.11-5.2-5.68-1.04-2.57-1.55-5.97-1.55-10.2s.54-7.86,1.63-10.51c1.09-2.64,2.85-4.57,5.28-5.79,2.43-1.22,5.67-1.83,9.7-1.83s7.34.62,9.74,1.86c2.41,1.24,4.15,3.17,5.24,5.79,1.09,2.62,1.63,6.11,1.63,10.47s-.52,7.62-1.55,10.2c-1.04,2.57-2.76,4.47-5.16,5.68-2.41,1.22-5.71,1.83-9.9,1.83s-7.43-.61-9.86-1.83Zm16.46-3.93c1.5-.85,2.55-2.2,3.14-4.06.59-1.86.89-4.49.89-7.89,0-3.58-.31-6.34-.93-8.27-.62-1.93-1.68-3.31-3.18-4.13-1.5-.83-3.65-1.24-6.44-1.24s-4.96.41-6.48,1.24c-1.53.83-2.61,2.2-3.26,4.13-.65,1.93-.97,4.68-.97,8.27,0,3.35.3,5.97.89,7.85.59,1.88,1.66,3.25,3.18,4.1,1.53.85,3.74,1.27,6.64,1.27s5.02-.42,6.52-1.27Z"/>
          <path class="cls-1" d="m790.08,911.81h5.75v4.68c4.45-2.71,9.19-4.52,14.21-5.44v5.24c-2.02.37-4.21.93-6.56,1.69-2.36.76-4.23,1.46-5.63,2.1l-1.94.9v25.28h-5.82v-34.44Z"/>
          <path class="cls-1" d="m835.42,945.7l-2.79-.34.62-4.41c7.09.83,12.45,1.24,16.07,1.24,7.66,0,11.49-3.19,11.49-9.58,0-1.74-.35-3.12-1.05-4.13-.7-1.01-1.89-1.84-3.57-2.48-1.68-.64-4.13-1.24-7.34-1.79-4.24-.78-7.54-1.68-9.9-2.69-2.36-1.01-4.08-2.37-5.16-4.06-1.09-1.7-1.63-3.97-1.63-6.82,0-8.54,5.77-12.81,17.31-12.81,3.98,0,9.39.46,16.23,1.38l-.54,4.48c-7.45-.78-12.55-1.17-15.29-1.17-7.76,0-11.64,2.59-11.64,7.78,0,1.98.37,3.48,1.13,4.51.75,1.03,2.03,1.87,3.84,2.51,1.81.64,4.68,1.36,8.62,2.14,3.83.78,6.79,1.65,8.89,2.62,2.1.96,3.64,2.24,4.62,3.82.98,1.58,1.47,3.69,1.47,6.3,0,9.78-5.72,14.67-17.16,14.67-3.62,0-8.36-.39-14.21-1.17Z"/>
          <path class="cls-1" d="m881.15,945.12c-2.43-1.22-4.17-3.11-5.2-5.68-1.04-2.57-1.55-5.97-1.55-10.2s.54-7.86,1.63-10.51c1.09-2.64,2.85-4.57,5.28-5.79,2.43-1.22,5.67-1.83,9.7-1.83s7.34.62,9.74,1.86c2.41,1.24,4.15,3.17,5.24,5.79,1.09,2.62,1.63,6.11,1.63,10.47s-.52,7.62-1.55,10.2c-1.04,2.57-2.76,4.47-5.16,5.68-2.41,1.22-5.71,1.83-9.9,1.83s-7.43-.61-9.86-1.83Zm16.46-3.93c1.5-.85,2.55-2.2,3.14-4.06.59-1.86.89-4.49.89-7.89,0-3.58-.31-6.34-.93-8.27-.62-1.93-1.68-3.31-3.18-4.13-1.5-.83-3.65-1.24-6.44-1.24s-4.96.41-6.48,1.24c-1.53.83-2.61,2.2-3.26,4.13-.65,1.93-.97,4.68-.97,8.27,0,3.35.3,5.97.89,7.85.59,1.88,1.66,3.25,3.18,4.1,1.53.85,3.74,1.27,6.64,1.27s5.02-.42,6.52-1.27Z"/>
          <path class="cls-1" d="m921.83,945.12c-2.28-1.22-3.91-3.12-4.89-5.72-.98-2.59-1.48-6.05-1.48-10.37,0-5.46,1.03-9.83,3.11-13.09,2.07-3.26,6.08-4.89,12.03-4.89,1.55,0,3.16.07,4.81.21,1.66.14,3.91.44,6.75.9l-.23,4.2c-4.09-.41-7.22-.62-9.39-.62-2.95,0-5.21.4-6.79,1.21-1.58.8-2.69,2.16-3.34,4.06-.65,1.91-.97,4.63-.97,8.16,0,3.35.31,5.96.93,7.82.62,1.86,1.75,3.22,3.38,4.06,1.63.85,4,1.27,7.1,1.27l9.16-.62.23,4.27c-4.97.64-8.7.96-11.18.96-3.88,0-6.96-.61-9.24-1.83Z"/>
          <path class="cls-1" d="m950.94,898.03h5.75v5.99h-5.75v-5.99Zm0,13.78h5.75v34.44h-5.75v-34.44Z"/>
          <path class="cls-1" d="m968.18,944.25c-1.86-1.79-2.79-4.36-2.79-7.72s.94-5.76,2.83-7.37c1.89-1.61,4.9-2.59,9.04-2.96l12.19-1.03v-2.96c0-4.36-2.12-6.54-6.37-6.54s-9.29.3-15.29.9l-.23-3.93c5.54-1.01,10.58-1.52,15.14-1.52s7.59.89,9.59,2.65c1.99,1.77,2.99,4.58,2.99,8.44v17.64c.16,1.7,1.66,2.71,4.5,3.03l-.23,4.06c-4.09,0-7.17-.92-9.24-2.76-4.61,1.84-9.27,2.76-13.97,2.76-3.57,0-6.29-.9-8.15-2.69Zm19.49-3.24l1.79-.55v-11.37l-11.49.96c-2.33.18-4.01.78-5.05,1.79-1.04,1.01-1.55,2.48-1.55,4.41,0,4.23,1.97,6.34,5.9,6.34,3.47,0,6.93-.53,10.4-1.58Z"/>
          <path class="cls-1" d="m1007.23,896.79h5.82v49.46h-5.82v-49.46Z"/>
          <path class="cls-1" d="m1043.17,945.7l-2.79-.34.62-4.41c7.09.83,12.45,1.24,16.07,1.24,7.66,0,11.49-3.19,11.49-9.58,0-1.74-.35-3.12-1.05-4.13-.7-1.01-1.89-1.84-3.57-2.48-1.68-.64-4.13-1.24-7.34-1.79-4.24-.78-7.54-1.68-9.9-2.69-2.36-1.01-4.08-2.37-5.16-4.06-1.09-1.7-1.63-3.97-1.63-6.82,0-8.54,5.77-12.81,17.31-12.81,3.98,0,9.39.46,16.23,1.38l-.54,4.48c-7.45-.78-12.55-1.17-15.29-1.17-7.76,0-11.64,2.59-11.64,7.78,0,1.98.37,3.48,1.13,4.51.75,1.03,2.03,1.87,3.84,2.51,1.81.64,4.68,1.36,8.62,2.14,3.83.78,6.79,1.65,8.89,2.62,2.1.96,3.64,2.24,4.62,3.82.98,1.58,1.47,3.69,1.47,6.3,0,9.78-5.72,14.67-17.16,14.67-3.62,0-8.36-.39-14.21-1.17Z"/>
          <path class="cls-1" d="m1085.83,942.84c-2.46-2.73-3.69-7.04-3.69-12.92,0-6.38,1.32-11.11,3.96-14.19,2.64-3.08,6.78-4.62,12.42-4.62,5.18,0,9.04,1.32,11.61,3.96,2.56,2.64,3.84,6.69,3.84,12.16l-.31,3.93h-25.62c0,2.85.35,5.08,1.05,6.68.7,1.61,1.89,2.77,3.57,3.48,1.68.71,4.02,1.07,7.03,1.07,1.5,0,3.23-.03,5.2-.1,1.97-.07,3.75-.17,5.36-.31l2.25-.21.16,4.06c-5.75.73-10.51,1.1-14.28,1.1-5.9,0-10.08-1.37-12.54-4.1Zm22.32-15.81c0-4.18-.75-7.15-2.25-8.92-1.5-1.77-3.96-2.65-7.38-2.65s-6.21.93-7.92,2.79c-1.71,1.86-2.59,4.79-2.64,8.78h20.18Z"/>
          <path class="cls-1" d="m1127.79,945.12c-2.28-1.22-3.91-3.12-4.89-5.72-.98-2.59-1.48-6.05-1.48-10.37,0-5.46,1.03-9.83,3.11-13.09,2.07-3.26,6.08-4.89,12.03-4.89,1.55,0,3.16.07,4.81.21,1.66.14,3.91.44,6.75.9l-.23,4.2c-4.09-.41-7.22-.62-9.39-.62-2.95,0-5.21.4-6.79,1.21-1.58.8-2.69,2.16-3.34,4.06-.65,1.91-.97,4.63-.97,8.16,0,3.35.31,5.96.93,7.82.62,1.86,1.75,3.22,3.38,4.06,1.63.85,4,1.27,7.1,1.27l9.16-.62.23,4.27c-4.97.64-8.7.96-11.18.96-3.88,0-6.96-.61-9.24-1.83Z"/>
          <path class="cls-1" d="m1161.37,945.32c-1.79-1.08-3.04-2.84-3.77-5.27-.73-2.43-1.09-5.86-1.09-10.27v-17.98h5.82v17.91c0,3.44.21,6.04.62,7.78.41,1.75,1.16,2.99,2.25,3.72,1.09.74,2.77,1.1,5.05,1.1,3.52,0,7.14-.85,10.87-2.55v-27.97h5.82v34.44h-5.82v-2.41c-2.12,1.1-4.09,1.89-5.9,2.38-1.81.48-3.88.72-6.21.72-3.31,0-5.86-.54-7.65-1.62Z"/>
          <path class="cls-1" d="m1198.13,911.81h5.75v4.68c4.45-2.71,9.19-4.52,14.21-5.44v5.24c-2.02.37-4.21.93-6.56,1.69-2.36.76-4.23,1.46-5.63,2.1l-1.94.9v25.28h-5.82v-34.44Z"/>
          <path class="cls-1" d="m1224.99,898.03h5.75v5.99h-5.75v-5.99Zm0,13.78h5.75v34.44h-5.75v-34.44Z"/>
          <path class="cls-1" d="m1246.92,945.87c-1.48-.76-2.54-2.04-3.18-3.86-.65-1.81-.97-4.35-.97-7.61v-18.12h-5.51v-4.48h5.51v-10.54h5.75v10.54h12.34v4.48h-12.34v16.46c0,2.57.1,4.49.31,5.75.21,1.26.71,2.23,1.51,2.89.8.67,2.06,1,3.77,1l6.91-.41.39,4.27c-3.67.5-6.44.76-8.31.76-2.64,0-4.7-.38-6.17-1.14Z"/>
          <path class="cls-1" d="m1281.12,946.25h-5.75l-11.02-34.44h5.82l9.7,29.97h2.56l9.78-29.97h5.82l-16.15,49.74h-5.82l5.05-15.29Z"/>
        </g>
      </g>
    </g>
  </g>
</svg>