<?xml version="1.0" encoding="UTF-8"?>
<svg id="Layer_2" data-name="Layer 2" xmlns="http://www.w3.org/2000/svg" viewBox="0 0 2652.29 703.35">
  <defs>
  </defs>
  <g id="Layer_1-2" data-name="Layer 1">
    <g>
      <g>
        <polygon class="cls-1" points="2603.26 367.88 2652.29 414.85 2652.29 638.68 2603.26 638.68 2603.26 367.88"/>
        <polygon class="cls-1" points="2533.9 309.41 2582.92 351.13 2582.92 638.68 2533.9 638.68 2533.9 309.41"/>
        <polygon class="cls-1" points="2465.45 497.41 2514.47 543.6 2514.47 638.68 2465.45 638.68 2465.45 497.41"/>
        <polygon class="cls-1" points="2465.45 435.06 2514.47 479.51 2514.47 523.97 2465.45 483.56 2465.45 435.06"/>
        <polygon class="cls-1" points="2465.45 370.97 2514.47 415.42 2514.47 459.88 2465.45 419.47 2465.45 370.97"/>
        <polygon class="cls-1" points="2397.01 268.19 2446.03 313.26 2446.03 638.68 2397.01 638.68 2397.01 268.19"/>
        <polygon class="cls-1" points="2446.49 223.74 2421.98 246.27 2397.47 223.74 2397.47 255.49 2404.9 261.97 2421.98 276.86 2446.49 298.22 2446.49 268.8 2439.06 261.97 2446.49 255.49 2446.49 223.74"/>
        <polygon class="cls-1" points="2329.49 535.43 2316.54 535.43 2267.52 535.43 2267.52 584.45 2267.52 593.26 2316.54 638.68 2316.54 584.45 2329.49 584.45 2329.49 638.68 2378.51 638.68 2378.51 584.45 2378.51 535.43 2329.49 535.43"/>
        <polygon class="cls-1" points="2199.07 435.06 2248.09 479.51 2248.09 575.36 2199.07 529.75 2199.07 435.06"/>
        <polygon class="cls-1" points="2199.07 545.34 2248.09 589.79 2248.09 638.68 2199.07 593.07 2199.07 545.34"/>
        <polygon class="cls-1" points="2131.09 432.84 2180.11 477.3 2180.11 526.19 2131.09 480.57 2131.09 432.84"/>
        <polygon class="cls-1" points="1924.37 432.84 1973.39 477.3 1973.39 526.19 1924.37 480.57 1924.37 432.84"/>
        <polygon class="cls-1" points="1924.37 367.88 1973.39 412.34 1973.39 461.23 1924.37 415.61 1924.37 367.88"/>
        <polygon class="cls-1" points="2199.07 610 2248.09 654.46 2248.09 703.35 2199.07 657.74 2199.07 610"/>
        <polygon class="cls-1" points="2129.7 497.41 2178.72 545.34 2178.72 638.68 2129.7 638.68 2129.7 497.41"/>
        <polygon class="cls-1" points="2063.11 0 2112.13 45.21 2112.13 638.68 2063.11 638.68 2063.11 0"/>
        <polygon class="cls-1" points="1993.81 497.41 2042.83 545.34 2042.83 638.68 1993.81 638.68 1993.81 497.41"/>
        <polygon class="cls-1" points="1924.37 497.41 1973.39 539.28 1973.39 638.68 1924.37 638.68 1924.37 497.41"/>
      </g>
      <g>
        <g>
          <polygon class="cls-1" points="1783.23 410.46 1783.23 487.42 1791.74 487.42 1791.74 416.31 1783.23 410.46"/>
          <path class="cls-1" d="m1761.94,401.29l-8.52-5.46v82.2h-33.49v-30.28h-41.73v9.39h.64v20.89h-28.95v-30.28h-41.73v39.67h0s33.21,0,33.21,0v15.89h-23.19l-6.44,9.39h38.15v-25.28h112.04v-9.39h0v-76.74Zm-145.25,76.74v-20.89h24.7v20.89h-24.7Zm70.68-20.89h24.06v20.89h-24.06v-20.89Z"/>
          <path class="cls-1" d="m1575.6,478.03h-22.14v-17.86l-8.52-6.04v23.9h-17.88v-17.86l-8.52-6.04v23.9h-33.42v-17.86l-8.52-6.04v23.9h-21.93v-17.86l-8.52-6.04v23.9h-17.46v-17.86l-8.52-6.04v23.9h-31.29v-32.41l-8.52-8.67v11.23h-32.15v39.24h235.88v-27.25l-8.52-6.04v23.9Zm-218.85,0v-20.46h23.63v20.46h-23.63Z"/>
          <polygon class="cls-1" points="1309.7 487.42 1318.21 487.42 1318.21 416.76 1309.7 411.43 1309.7 487.42"/>
          <polygon class="cls-1" points="1277.71 478.03 1231.57 478.03 1231.57 456.47 1251.48 456.47 1256.62 448.18 1231.57 448.18 1223.05 448.18 1223.05 456.47 1223.05 478.03 1186.86 478.03 1186.86 404.24 1178.35 397.93 1178.35 478.03 1178.35 487.42 1186.86 487.42 1223.05 487.42 1231.57 487.42 1277.71 487.42 1286.49 487.42 1286.49 478.03 1286.49 403.33 1277.71 397.07 1277.71 478.03"/>
          <polygon class="cls-1" points="992.28 478.03 962.48 478.03 962.48 402.22 953.97 396.08 953.97 478.03 922.12 478.03 922.12 446.11 913.6 439.97 913.6 478.03 867.96 478.03 867.96 411.82 859.44 405.68 859.44 478.03 859.44 487.42 867.96 487.42 913.6 487.42 922.12 487.42 953.97 487.42 962.48 487.42 992.28 487.42 1000.8 487.42 1000.8 478.03 1000.8 416.31 992.28 410.68 992.28 478.03"/>
          <polygon class="cls-1" points="628.26 478.03 553.08 478.03 553.08 446.93 543.58 439.77 543.58 478.03 543.58 487.42 553.08 487.42 628.26 487.42 637.76 487.42 637.76 478.03 637.76 446.93 628.26 439.77 628.26 478.03"/>
          <polygon class="cls-1" points="500.36 487.42 508.88 487.42 508.88 416.31 500.36 410.52 500.36 487.42"/>
          <polygon class="cls-1" points="468.49 478.03 442.43 478.03 442.43 416.72 434.04 410.64 434.04 478.03 414.58 478.03 414.58 487.42 434.04 487.42 442.43 487.42 468.49 487.42 476.98 487.42 477.01 487.42 477.01 403.16 468.49 396.89 468.49 478.03"/>
          <path class="cls-1" d="m1119.59,448.18h-8.52v29.85h-35.13v-33.02l-8.52-7.61v10.78h-31.72v39.24h116.02v-39.24h-32.15Zm-75.36,29.85v-20.46h23.2v20.46h-23.2Zm98.99,0h-23.63v-20.46h23.63v20.46Z"/>
          <path class="cls-1" d="m805.37,448.23h-8.52v29.8h-31.93v-32.08l-8.52-5.37v37.45h-37.2v-32.08l-8.52-5.37v37.45h-42.42v-74.76l-8.52-5.5v80.26h-.58v9.39h177.92v-39.19h-31.72Zm23.2,29.8h-23.2v-20.41h23.2v20.41Z"/>
          <path class="cls-1" d="m340.12,447.99l6.22,8.52h39.27v21.52h-71.66v-31.91l-9.33-6.47v38.38h-39.07v-30.03h-40.45v30.03h-28.74v-61.18l-9.07-6.07v76.64h206.84v-39.42h-54.01Zm-106.51,30.03v-21.52h23.42v21.52h-23.42Z"/>
          <path class="cls-1" d="m126.13,457.33h30.76l6.04-9.33h-36.8v-.03h-9.39v30.06h-31.44v-32.03l-9.33-6.23v38.26h-34.4v-32.34l-9.29-8.4v10.68H0v39.45h166.91v-9.39h-40.78v-20.7Zm-116.74,20.7v-20.67h22.88v20.67H9.39Z"/>
          <polygon class="cls-1" points="1642.93 423.08 1639.53 419.86 1642.93 416.87 1642.93 410.55 1635.24 416.75 1627.37 409.48 1627.37 416.69 1642.93 430.11 1642.93 423.08"/>
          <polygon class="cls-1" points="875.74 388.04 872.34 384.82 875.74 381.84 875.74 375.52 868.05 381.72 860.18 374.45 860.18 381.66 875.74 395.08 875.74 388.04"/>
          <polygon class="cls-1" points="1395.98 416.31 1384.97 405.84 1378.25 414.2 1389.58 423.96 1395.98 416.31"/>
          <polygon class="cls-1" points="1372.66 418.31 1361.64 407.84 1354.93 416.2 1366.25 425.96 1372.66 418.31"/>
          <polygon class="cls-1" points="1081.03 417.31 1070.01 406.84 1063.3 415.2 1074.62 424.96 1081.03 417.31"/>
          <polygon class="cls-1" points="1057.7 419.31 1046.69 408.84 1039.97 417.2 1051.3 426.96 1057.7 419.31"/>
          <polygon class="cls-1" points="940.39 416.31 929.38 405.84 922.66 414.2 933.99 423.96 940.39 416.31"/>
          <polygon class="cls-1" points="917.07 418.31 906.05 407.84 899.34 416.2 910.66 425.96 917.07 418.31"/>
          <polygon class="cls-1" points="767.72 505.36 779.04 515.12 785.45 507.46 774.43 497 767.72 505.36"/>
          <polygon class="cls-1" points="744.39 507.36 755.72 517.12 762.12 509.46 751.11 499 744.39 507.36"/>
          <polygon class="cls-1" points="732.52 419.31 721.51 408.84 714.79 417.2 726.12 426.96 732.52 419.31"/>
          <polygon class="cls-1" points="611.2 427.37 600.18 416.9 593.47 425.26 604.79 435.02 611.2 427.37"/>
          <polygon class="cls-1" points="587.87 429.37 576.86 418.9 570.14 427.26 581.47 437.02 587.87 429.37"/>
          <polygon class="cls-1" points="319.73 415.31 308.72 404.84 302 413.2 313.33 422.96 319.73 415.31"/>
          <polygon class="cls-1" points="362.98 506.36 374.3 516.12 380.71 508.46 369.7 498 362.98 506.36"/>
          <polygon class="cls-1" points="296.41 417.31 285.39 406.84 278.68 415.2 290 424.96 296.41 417.31"/>
          <polygon class="cls-1" points="45.75 416.31 34.74 405.84 28.02 414.2 39.35 423.96 45.75 416.31"/>
          <polygon class="cls-1" points="22.43 418.31 11.41 407.84 4.69 416.2 16.02 425.96 22.43 418.31"/>
          <polygon class="cls-1" points="73.41 504.36 84.74 514.12 91.14 506.46 80.13 496 73.41 504.36"/>
          <polygon class="cls-1" points="50.09 506.36 61.41 516.12 67.82 508.46 56.8 498 50.09 506.36"/>
        </g>
        <g>
          <path class="cls-1" d="m24.45,558.88H1.41v-6.62h54.09v6.62h-22.83v59.81h-8.22v-59.81Z"/>
          <path class="cls-1" d="m64.7,549.76h8.11v23.62c3.17-1.28,6.11-2.21,8.82-2.78,2.7-.58,5.46-.86,8.28-.86,4.69,0,8.31.75,10.87,2.26,2.56,1.5,4.36,3.95,5.41,7.34,1.04,3.39,1.57,8.06,1.57,14.02v25.34h-8.11v-25.15c0-4.74-.31-8.3-.92-10.7-.61-2.4-1.77-4.11-3.46-5.14-1.7-1.02-4.2-1.54-7.52-1.54-4.11,0-8.4.74-12.87,2.21l-2.06.67v39.65h-8.11v-68.93Z"/>
          <path class="cls-1" d="m125.55,613.93c-3.43-3.81-5.14-9.81-5.14-18,0-8.9,1.84-15.49,5.52-19.78,3.68-4.29,9.45-6.43,17.31-6.43,7.21,0,12.6,1.84,16.17,5.52,3.57,3.68,5.36,9.33,5.36,16.94l-.43,5.47h-35.7c0,3.97.49,7.07,1.46,9.31.97,2.24,2.63,3.86,4.98,4.85,2.34.99,5.61,1.49,9.79,1.49,2.09,0,4.51-.05,7.25-.14,2.74-.1,5.23-.24,7.46-.43l3.14-.29.22,5.66c-8.01,1.02-14.64,1.54-19.91,1.54-8.22,0-14.05-1.9-17.47-5.71Zm31.1-22.03c0-5.82-1.05-9.97-3.14-12.43-2.09-2.46-5.52-3.7-10.28-3.7s-8.65,1.3-11.04,3.89c-2.38,2.59-3.61,6.67-3.68,12.24h28.13Z"/>
          <path class="cls-1" d="m202.63,552.25h27.37c8.15,0,14.17,1.74,18.07,5.23,3.89,3.49,5.84,8.88,5.84,16.18,0,15.11-7.97,22.66-23.91,22.66h-19.04v22.37h-8.33v-66.43Zm27.26,37.54c10.31,0,15.47-5.38,15.47-16.13,0-5.18-1.23-8.96-3.68-11.33-2.45-2.37-6.38-3.55-11.79-3.55h-18.93v31.01h18.93Z"/>
          <path class="cls-1" d="m271.6,617.39c-2.49-1.5-4.24-3.95-5.25-7.34-1.01-3.39-1.51-8.16-1.51-14.3v-25.06h8.11v24.96c0,4.8.29,8.42.87,10.85.58,2.43,1.62,4.16,3.14,5.18,1.51,1.02,3.86,1.54,7.03,1.54,4.9,0,9.95-1.18,15.15-3.55v-38.98h8.11v48h-8.11v-3.36c-2.96,1.54-5.7,2.64-8.22,3.31-2.53.67-5.41,1.01-8.66,1.01-4.62,0-8.17-.75-10.66-2.26Z"/>
          <path class="cls-1" d="m325.86,618.88l-3.03-.29v-68.83h8.01v23.33c5.63-2.24,11.11-3.36,16.44-3.36,4.76,0,8.51.82,11.25,2.45,2.74,1.63,4.74,4.24,6,7.82,1.26,3.59,1.89,8.39,1.89,14.4,0,6.59-.79,11.68-2.38,15.26-1.59,3.58-4.24,6.13-7.95,7.63-3.72,1.5-8.96,2.26-15.74,2.26-4.76,0-9.59-.23-14.5-.67Zm25.86-7.54c2.45-1.25,4.15-3.22,5.08-5.9.94-2.69,1.41-6.43,1.41-11.23,0-4.54-.4-8.11-1.19-10.7-.79-2.59-2.11-4.46-3.95-5.62-1.84-1.15-4.38-1.73-7.63-1.73-3.97,0-8.84.93-14.61,2.78v33.79c5.19.32,8.66.48,10.39.48,4.54,0,8.04-.62,10.49-1.87Z"/>
          <path class="cls-1" d="m380.38,549.76h8.11v68.93h-8.11v-68.93Z"/>
          <path class="cls-1" d="m404.72,551.48h8.01v8.35h-8.01v-8.35Zm0,19.2h8.01v48h-8.01v-48Z"/>
          <path class="cls-1" d="m434.26,617.1c-3.17-1.7-5.45-4.35-6.82-7.97-1.37-3.62-2.06-8.43-2.06-14.45,0-7.62,1.44-13.7,4.33-18.24,2.88-4.54,8.47-6.82,16.77-6.82,2.16,0,4.4.1,6.71.29,2.31.19,5.44.61,9.41,1.25l-.32,5.86c-5.7-.58-10.06-.86-13.09-.86-4.11,0-7.27.56-9.47,1.68-2.2,1.12-3.75,3.01-4.65,5.66-.9,2.66-1.35,6.45-1.35,11.38,0,4.67.43,8.3,1.3,10.9.87,2.59,2.43,4.48,4.71,5.66,2.27,1.18,5.57,1.78,9.9,1.78l12.77-.86.33,5.95c-6.92.9-12.12,1.34-15.58,1.34-5.41,0-9.7-.85-12.87-2.54Z"/>
          <path class="cls-1" d="m500.03,552.25h8.33v66.43h-8.33v-66.43Z"/>
          <path class="cls-1" d="m525.24,570.68h8.01v3.36c3.25-1.6,6.22-2.72,8.93-3.36,2.7-.64,5.53-.96,8.49-.96,4.62,0,8.19.77,10.71,2.3,2.52,1.54,4.31,3.98,5.35,7.34,1.04,3.36,1.57,8.02,1.57,13.97v25.34h-8.01v-25.15c0-4.54-.31-8.03-.92-10.46-.61-2.43-1.71-4.19-3.3-5.28-1.59-1.09-3.89-1.63-6.92-1.63-2.45,0-4.96.27-7.52.82-2.56.54-4.63,1.17-6.22,1.87l-2.06.86v38.98h-8.11v-48Z"/>
          <path class="cls-1" d="m584.42,618.3l-3.25-.48.43-6.24c8.44,1.09,14.64,1.63,18.61,1.63,4.33,0,7.55-.62,9.68-1.87,2.13-1.25,3.19-3.25,3.19-6,0-1.98-.52-3.49-1.57-4.51-1.05-1.02-2.38-1.76-4-2.21-1.62-.45-3.91-.86-6.87-1.25l-2.71-.38c-4.33-.64-7.72-1.41-10.17-2.3-2.45-.9-4.29-2.16-5.52-3.79-1.23-1.63-1.84-3.89-1.84-6.77,0-5.18,1.77-8.86,5.3-11.04,3.53-2.18,8.55-3.26,15.04-3.26,5.12,0,10.35.42,15.69,1.25l3.03.48-.22,6.14c-7.79-1.02-13.88-1.54-18.28-1.54s-7.3.58-9.36,1.73c-2.06,1.15-3.08,2.94-3.08,5.38,0,1.73.5,3.06,1.51,3.98,1.01.93,2.33,1.6,3.95,2.02,1.62.42,3.91.85,6.87,1.3l2.71.48c4.47.71,7.93,1.52,10.39,2.45,2.45.93,4.27,2.26,5.46,3.98,1.19,1.73,1.79,4.13,1.79,7.2,0,5.18-1.71,8.98-5.14,11.38-3.43,2.4-8.67,3.6-15.74,3.6-4.33,0-9.63-.45-15.9-1.34Z"/>
          <path class="cls-1" d="m642.25,618.16c-2.06-1.06-3.54-2.85-4.44-5.38-.9-2.53-1.35-6.06-1.35-10.61v-25.25h-7.68v-6.24h7.68v-14.69h8.01v14.69h17.2v6.24h-17.2v22.94c0,3.58.14,6.26.43,8.02.29,1.76.99,3.1,2.11,4.03,1.12.93,2.87,1.39,5.25,1.39l9.63-.58.54,5.95c-5.12.7-8.98,1.06-11.58,1.06-3.68,0-6.55-.53-8.6-1.58Z"/>
          <path class="cls-1" d="m671.62,551.48h8.01v8.35h-8.01v-8.35Zm0,19.2h8.01v48h-8.01v-48Z"/>
          <path class="cls-1" d="m702.18,618.16c-2.06-1.06-3.54-2.85-4.44-5.38-.9-2.53-1.35-6.06-1.35-10.61v-25.25h-7.68v-6.24h7.68v-14.69h8.01v14.69h17.2v6.24h-17.2v22.94c0,3.58.14,6.26.43,8.02.29,1.76.99,3.1,2.11,4.03,1.12.93,2.87,1.39,5.25,1.39l9.63-.58.54,5.95c-5.12.7-8.98,1.06-11.58,1.06-3.68,0-6.55-.53-8.6-1.58Z"/>
          <path class="cls-1" d="m737.77,617.39c-2.49-1.5-4.24-3.95-5.25-7.34-1.01-3.39-1.51-8.16-1.51-14.3v-25.06h8.11v24.96c0,4.8.29,8.42.87,10.85.58,2.43,1.62,4.16,3.14,5.18,1.51,1.02,3.86,1.54,7.03,1.54,4.9,0,9.95-1.18,15.15-3.55v-38.98h8.11v48h-8.11v-3.36c-2.96,1.54-5.7,2.64-8.22,3.31-2.53.67-5.41,1.01-8.66,1.01-4.62,0-8.17-.75-10.66-2.26Z"/>
          <path class="cls-1" d="m797.6,618.16c-2.06-1.06-3.54-2.85-4.44-5.38-.9-2.53-1.35-6.06-1.35-10.61v-25.25h-7.68v-6.24h7.68v-14.69h8.01v14.69h17.2v6.24h-17.2v22.94c0,3.58.14,6.26.43,8.02.29,1.76.99,3.1,2.11,4.03,1.12.93,2.87,1.39,5.25,1.39l9.63-.58.54,5.95c-5.12.7-8.98,1.06-11.58,1.06-3.68,0-6.55-.53-8.6-1.58Z"/>
          <path class="cls-1" d="m826.97,551.48h8.01v8.35h-8.01v-8.35Zm0,19.2h8.01v48h-8.01v-48Z"/>
          <path class="cls-1" d="m856.94,617.1c-3.39-1.7-5.81-4.33-7.25-7.92-1.44-3.58-2.16-8.32-2.16-14.21s.76-10.96,2.27-14.64c1.51-3.68,3.96-6.37,7.36-8.06,3.39-1.7,7.9-2.54,13.52-2.54s10.22.86,13.58,2.59c3.35,1.73,5.79,4.42,7.3,8.06,1.51,3.65,2.27,8.51,2.27,14.59s-.72,10.62-2.16,14.21c-1.44,3.58-3.84,6.22-7.19,7.92-3.35,1.7-7.95,2.54-13.79,2.54s-10.35-.85-13.74-2.54Zm22.94-5.47c2.09-1.18,3.55-3.07,4.38-5.66.83-2.59,1.24-6.25,1.24-10.99,0-4.99-.43-8.83-1.3-11.52-.87-2.69-2.34-4.61-4.44-5.76-2.09-1.15-5.08-1.73-8.98-1.73s-6.91.58-9.03,1.73c-2.13,1.15-3.64,3.07-4.54,5.76-.9,2.69-1.35,6.53-1.35,11.52,0,4.67.41,8.32,1.24,10.94.83,2.62,2.31,4.53,4.44,5.71,2.13,1.18,5.21,1.78,9.25,1.78s7-.59,9.09-1.78Z"/>
          <path class="cls-1" d="m907.03,570.68h8.01v3.36c3.25-1.6,6.22-2.72,8.93-3.36,2.7-.64,5.53-.96,8.49-.96,4.62,0,8.19.77,10.71,2.3,2.52,1.54,4.31,3.98,5.35,7.34,1.04,3.36,1.57,8.02,1.57,13.97v25.34h-8.01v-25.15c0-4.54-.31-8.03-.92-10.46-.61-2.43-1.71-4.19-3.3-5.28-1.59-1.09-3.89-1.63-6.92-1.63-2.45,0-4.96.27-7.52.82-2.56.54-4.63,1.17-6.22,1.87l-2.06.86v38.98h-8.11v-48Z"/>
          <path class="cls-1" d="m998.66,558.78v25.92h30.83v6.53h-30.83v27.46h-8.33v-66.43h44.79v6.53h-36.46Z"/>
          <path class="cls-1" d="m1050.92,617.1c-3.39-1.7-5.81-4.33-7.25-7.92-1.44-3.58-2.16-8.32-2.16-14.21s.76-10.96,2.27-14.64c1.51-3.68,3.96-6.37,7.36-8.06,3.39-1.7,7.9-2.54,13.52-2.54s10.22.86,13.58,2.59c3.35,1.73,5.79,4.42,7.3,8.06,1.51,3.65,2.27,8.51,2.27,14.59s-.72,10.62-2.16,14.21c-1.44,3.58-3.84,6.22-7.19,7.92-3.35,1.7-7.95,2.54-13.79,2.54s-10.35-.85-13.74-2.54Zm22.94-5.47c2.09-1.18,3.55-3.07,4.38-5.66.83-2.59,1.24-6.25,1.24-10.99,0-4.99-.43-8.83-1.3-11.52-.87-2.69-2.34-4.61-4.44-5.76-2.09-1.15-5.08-1.73-8.98-1.73s-6.91.58-9.03,1.73c-2.13,1.15-3.64,3.07-4.54,5.76-.9,2.69-1.35,6.53-1.35,11.52,0,4.67.41,8.32,1.24,10.94.83,2.62,2.31,4.53,4.44,5.71,2.13,1.18,5.21,1.78,9.25,1.78s7-.59,9.09-1.78Z"/>
          <path class="cls-1" d="m1101.01,570.68h8.01v6.53c6.2-3.78,12.8-6.3,19.8-7.58v7.3c-2.81.51-5.86,1.3-9.14,2.35-3.28,1.06-5.9,2.03-7.84,2.93l-2.71,1.25v35.23h-8.11v-48Z"/>
          <path class="cls-1" d="m1164.19,617.92l-3.89-.48.87-6.14c9.88,1.15,17.34,1.73,22.39,1.73,10.67,0,16.01-4.45,16.01-13.34,0-2.43-.49-4.35-1.46-5.76-.97-1.41-2.63-2.56-4.98-3.46-2.34-.9-5.75-1.73-10.22-2.5-5.92-1.09-10.51-2.34-13.79-3.74-3.28-1.41-5.68-3.3-7.19-5.66-1.51-2.37-2.27-5.54-2.27-9.5,0-11.9,8.04-17.86,24.12-17.86,5.55,0,13.09.64,22.61,1.92l-.76,6.24c-10.39-1.09-17.49-1.63-21.31-1.63-10.82,0-16.23,3.62-16.23,10.85,0,2.75.52,4.85,1.57,6.29,1.04,1.44,2.83,2.61,5.36,3.5,2.52.9,6.53,1.89,12.01,2.98,5.34,1.09,9.47,2.3,12.39,3.65,2.92,1.34,5.07,3.12,6.44,5.33,1.37,2.21,2.05,5.14,2.05,8.78,0,13.63-7.97,20.45-23.91,20.45-5.05,0-11.65-.54-19.8-1.63Z"/>
          <path class="cls-1" d="m1227.91,617.1c-3.39-1.7-5.81-4.33-7.25-7.92-1.44-3.58-2.16-8.32-2.16-14.21s.76-10.96,2.27-14.64c1.51-3.68,3.96-6.37,7.36-8.06,3.39-1.7,7.9-2.54,13.52-2.54s10.22.86,13.58,2.59c3.35,1.73,5.79,4.42,7.3,8.06,1.51,3.65,2.27,8.51,2.27,14.59s-.72,10.62-2.16,14.21c-1.44,3.58-3.84,6.22-7.19,7.92-3.35,1.7-7.95,2.54-13.79,2.54s-10.35-.85-13.74-2.54Zm22.94-5.47c2.09-1.18,3.55-3.07,4.38-5.66.83-2.59,1.24-6.25,1.24-10.99,0-4.99-.43-8.83-1.3-11.52-.87-2.69-2.34-4.61-4.44-5.76-2.09-1.15-5.08-1.73-8.98-1.73s-6.91.58-9.03,1.73c-2.13,1.15-3.64,3.07-4.54,5.76-.9,2.69-1.35,6.53-1.35,11.52,0,4.67.41,8.32,1.24,10.94.83,2.62,2.31,4.53,4.44,5.71,2.13,1.18,5.21,1.78,9.25,1.78s7-.59,9.09-1.78Z"/>
          <path class="cls-1" d="m1284.6,617.1c-3.17-1.7-5.45-4.35-6.82-7.97-1.37-3.62-2.06-8.43-2.06-14.45,0-7.62,1.44-13.7,4.33-18.24,2.88-4.54,8.47-6.82,16.77-6.82,2.16,0,4.4.1,6.71.29,2.31.19,5.44.61,9.41,1.25l-.32,5.86c-5.7-.58-10.06-.86-13.09-.86-4.11,0-7.27.56-9.47,1.68-2.2,1.12-3.75,3.01-4.65,5.66-.9,2.66-1.35,6.45-1.35,11.38,0,4.67.43,8.3,1.3,10.9.87,2.59,2.43,4.48,4.71,5.66,2.27,1.18,5.57,1.78,9.9,1.78l12.77-.86.33,5.95c-6.92.9-12.12,1.34-15.58,1.34-5.41,0-9.7-.85-12.87-2.54Z"/>
          <path class="cls-1" d="m1325.17,551.48h8.01v8.35h-8.01v-8.35Zm0,19.2h8.01v48h-8.01v-48Z"/>
          <path class="cls-1" d="m1349.19,615.9c-2.6-2.5-3.89-6.08-3.89-10.75s1.32-8.03,3.95-10.27c2.63-2.24,6.83-3.62,12.6-4.13l16.99-1.44v-4.13c0-6.08-2.96-9.12-8.87-9.12s-12.95.42-21.31,1.25l-.33-5.47c7.72-1.41,14.75-2.11,21.1-2.11s10.58,1.23,13.36,3.7c2.78,2.46,4.17,6.38,4.17,11.76v24.58c.22,2.37,2.31,3.78,6.28,4.22l-.32,5.66c-5.7,0-9.99-1.28-12.88-3.84-6.42,2.56-12.91,3.84-19.47,3.84-4.98,0-8.76-1.25-11.36-3.74Zm27.16-4.51l2.49-.77v-15.84l-16.01,1.34c-3.25.26-5.59,1.09-7.03,2.5-1.44,1.41-2.16,3.46-2.16,6.14,0,5.89,2.74,8.83,8.22,8.83,4.83,0,9.66-.74,14.5-2.21Z"/>
          <path class="cls-1" d="m1403.6,549.76h8.11v68.93h-8.11v-68.93Z"/>
          <path class="cls-1" d="m1453.69,617.92l-3.89-.48.87-6.14c9.88,1.15,17.34,1.73,22.39,1.73,10.67,0,16.01-4.45,16.01-13.34,0-2.43-.49-4.35-1.46-5.76-.97-1.41-2.63-2.56-4.98-3.46-2.34-.9-5.75-1.73-10.22-2.5-5.92-1.09-10.51-2.34-13.79-3.74-3.28-1.41-5.68-3.3-7.19-5.66-1.51-2.37-2.27-5.54-2.27-9.5,0-11.9,8.04-17.86,24.12-17.86,5.55,0,13.09.64,22.61,1.92l-.76,6.24c-10.39-1.09-17.49-1.63-21.31-1.63-10.82,0-16.23,3.62-16.23,10.85,0,2.75.52,4.85,1.57,6.29,1.04,1.44,2.83,2.61,5.36,3.5,2.52.9,6.53,1.89,12.01,2.98,5.34,1.09,9.47,2.3,12.39,3.65,2.92,1.34,5.07,3.12,6.44,5.33,1.37,2.21,2.05,5.14,2.05,8.78,0,13.63-7.97,20.45-23.91,20.45-5.05,0-11.65-.54-19.8-1.63Z"/>
          <path class="cls-1" d="m1513.14,613.93c-3.43-3.81-5.14-9.81-5.14-18,0-8.9,1.84-15.49,5.52-19.78,3.68-4.29,9.45-6.43,17.31-6.43,7.21,0,12.6,1.84,16.17,5.52,3.57,3.68,5.36,9.33,5.36,16.94l-.43,5.47h-35.7c0,3.97.49,7.07,1.46,9.31.97,2.24,2.63,3.86,4.98,4.85,2.34.99,5.61,1.49,9.79,1.49,2.09,0,4.51-.05,7.25-.14,2.74-.1,5.23-.24,7.46-.43l3.14-.29.22,5.66c-8.01,1.02-14.64,1.54-19.91,1.54-8.22,0-14.05-1.9-17.47-5.71Zm31.1-22.03c0-5.82-1.05-9.97-3.14-12.43-2.09-2.46-5.52-3.7-10.28-3.7s-8.65,1.3-11.04,3.89c-2.38,2.59-3.61,6.67-3.68,12.24h28.13Z"/>
          <path class="cls-1" d="m1571.62,617.1c-3.17-1.7-5.45-4.35-6.82-7.97-1.37-3.62-2.06-8.43-2.06-14.45,0-7.62,1.44-13.7,4.33-18.24,2.88-4.54,8.47-6.82,16.77-6.82,2.16,0,4.4.1,6.71.29,2.31.19,5.44.61,9.41,1.25l-.32,5.86c-5.7-.58-10.06-.86-13.09-.86-4.11,0-7.27.56-9.47,1.68-2.2,1.12-3.75,3.01-4.65,5.66-.9,2.66-1.35,6.45-1.35,11.38,0,4.67.43,8.3,1.3,10.9.87,2.59,2.43,4.48,4.71,5.66,2.27,1.18,5.57,1.78,9.9,1.78l12.77-.86.33,5.95c-6.92.9-12.12,1.34-15.58,1.34-5.41,0-9.7-.85-12.87-2.54Z"/>
          <path class="cls-1" d="m1618.41,617.39c-2.49-1.5-4.24-3.95-5.25-7.34-1.01-3.39-1.51-8.16-1.51-14.3v-25.06h8.11v24.96c0,4.8.29,8.42.87,10.85.58,2.43,1.62,4.16,3.14,5.18,1.51,1.02,3.86,1.54,7.03,1.54,4.9,0,9.95-1.18,15.15-3.55v-38.98h8.11v48h-8.11v-3.36c-2.96,1.54-5.7,2.64-8.22,3.31-2.53.67-5.41,1.01-8.66,1.01-4.62,0-8.17-.75-10.66-2.26Z"/>
          <path class="cls-1" d="m1669.63,570.68h8.01v6.53c6.2-3.78,12.8-6.3,19.8-7.58v7.3c-2.81.51-5.86,1.3-9.14,2.35-3.28,1.06-5.9,2.03-7.84,2.93l-2.71,1.25v35.23h-8.11v-48Z"/>
          <path class="cls-1" d="m1707.06,551.48h8.01v8.35h-8.01v-8.35Zm0,19.2h8.01v48h-8.01v-48Z"/>
          <path class="cls-1" d="m1737.63,618.16c-2.06-1.06-3.54-2.85-4.44-5.38-.9-2.53-1.35-6.06-1.35-10.61v-25.25h-7.68v-6.24h7.68v-14.69h8.01v14.69h17.2v6.24h-17.2v22.94c0,3.58.14,6.26.43,8.02.29,1.76.99,3.1,2.11,4.03,1.12.93,2.87,1.39,5.25,1.39l9.63-.58.54,5.95c-5.12.7-8.98,1.06-11.58,1.06-3.68,0-6.55-.53-8.6-1.58Z"/>
          <path class="cls-1" d="m1785.28,618.68h-8.01l-15.36-48h8.11l13.52,41.76h3.57l13.63-41.76h8.11l-22.5,69.31h-8.11l7.03-21.31Z"/>
        </g>
      </g>
    </g>
  </g>
</svg>